<svg xmlns="http://www.w3.org/2000/svg"
     viewBox="0 0 2400 1200"
     role="img"
     aria-label="Highly detailed bald eagle gliding silhouette">

  <title>Bald Eagle – High Fidelity Gliding Silhouette</title>

  <defs>
    <style>
      .silhouette { fill: #ffffff; }
      .detail { display: none; fill: #000000; opacity: 0.22; }
    </style>
  </defs>

  <!-- ========================= -->
  <!-- MAIN SILHOUETTE          -->
  <!-- ========================= -->
  <path class="silhouette" d="

    /* LEFT WING – PRIMARY FEATHERS */
    M 140 610
    C 200 560, 260 520, 330 505
    C 370 495, 410 505, 445 530
    C 480 555, 500 560, 515 548
    C 535 532, 520 495, 470 460
    C 395 405, 310 380, 225 385
    C 160 390, 120 430, 110 470
    C 98 520, 110 585, 140 610
    Z

    /* LEFT WING – SECONDARIES */
    M 515 548
    C 560 515, 610 485, 660 465
    C 705 448, 740 448, 770 470
    C 795 488, 795 512, 770 535
    C 735 565, 690 595, 640 620
    C 600 640, 560 640, 530 615
    C 500 590, 495 565, 515 548
    Z

    /* BODY + CHEST */
    M 770 470
    C 820 440, 880 415, 960 395
    C 1040 375, 1160 375, 1240 395
    C 1320 415, 1380 440, 1430 470
    C 1460 488, 1460 512, 1430 535
    C 1380 575, 1300 610, 1200 630
    C 1100 610, 1020 575, 970 535
    C 940 512, 940 488, 970 470
    Z

    /* HEAD + BEAK (VERY DISTINCTIVE) */
    M 1430 470
    C 1470 440, 1520 415, 1565 410
    C 1620 405, 1670 430, 1685 465
    C 1700 500, 1660 525, 1600 525
    C 1560 525, 1520 510, 1485 490
    C 1460 475, 1445 475, 1430 470
    Z

    /* RIGHT WING – SECONDARIES */
    M 1630 548
    C 1680 515, 1730 485, 1780 465
    C 1825 448, 1860 448, 1890 470
    C 1915 488, 1915 512, 1890 535
    C 1855 565, 1810 595, 1760 620
    C 1720 640, 1680 640, 1650 615
    C 1620 590, 1615 565, 1630 548
    Z

    /* RIGHT WING – PRIMARY FEATHERS */
    M 1890 470
    C 1970 405, 2055 380, 2140 385
    C 2205 390, 2245 430, 2255 470
    C 2265 520, 2245 585, 2210 610
    C 2180 585, 2190 520, 2200 470
    C 2190 430, 2150 390, 2085 385
    C 2000 380, 1915 405, 1840 460
    C 1790 495, 1775 532, 1795 548
    C 1810 560, 1830 555, 1865 530
    C 1900 505, 1940 495, 1980 505
    C 2050 520, 2110 560, 2170 610
    Z

    /* TAIL – SHORT, STRONG FAN */
    M 1120 630
    C 1140 670, 1180 710, 1200 720
    C 1220 710, 1260 670, 1280 630
    C 1240 650, 1200 660, 1160 650
    Z
  "/>

  <!-- ========================= -->
  <!-- OPTIONAL DETAIL LAYER    -->
  <!-- ========================= -->
  <g class="detail">

    <!-- Primary feather separations -->
    <path d="
      M 240 520
      C 300 500, 360 500, 410 525
      C 350 530, 290 550, 240 580
      Z"/>

    <path d="
      M 2160 520
      C 2100 500, 2040 500, 1990 525
      C 2050 530, 2110 550, 2160 580
      Z"/>

    <!-- Shoulder / elbow articulation -->
    <path d="
      M 720 500
      C 820 460, 900 445, 960 450
      C 900 470, 820 505, 740 545
      Z"/>

    <path d="
      M 1680 500
      C 1580 460, 1500 445, 1440 450
      C 1500 470, 1580 505, 1660 545
      Z"/>

  </g>
</svg>
